<?xml version="1.0" encoding="iso-8859-1"?>
<!-- Generator: Adobe Illustrator 16.0.0, SVG Export Plug-In . SVG Version: 6.00 Build 0)  -->
<!DOCTYPE svg PUBLIC "-//W3C//DTD SVG 1.1//EN" "http://www.w3.org/Graphics/SVG/1.1/DTD/svg11.dtd">
<svg version="1.1" id="Capa_1" xmlns="http://www.w3.org/2000/svg" xmlns:xlink="http://www.w3.org/1999/xlink" x="0px" y="0px"
	 width="957.23px" height="957.23px" viewBox="0 0 957.23 957.23" style="enable-background:new 0 0 957.23 957.23;"
	 xml:space="preserve">
<g>
	<path d="M343.502,178.03l8.1,2.1c2.301,0.601,4.7,0.2,6.601-1.1c1.1-0.8,2.8-1.3,5.5-0.601c2.1,0.5,4.3,1.5,6.6,2.801
		c7.8,4.6,13.601,11.899,19.2,18.8c6.5,8.2,13.4,14.6,22.7,19.7c22.1,12,52.399,13.699,67.5-9.9c1.6-2.4,2.899-4.9,4-7.4
		c0.5-1.1,1.8-1.6,2.899-1.199c1.101,0.399,2.101,0.8,3.2,1.199c1,0.4,1.601,1.4,1.5,2.5c-0.399,3.4-0.899,6.7-1.2,10.101
		c-0.699,8.3-0.6,17,2.9,24.7c3.7,8.1,10.8,14.6,18.5,18.8c6.6,3.6,13.6,5.1,20.9,5.899c2,0.2,3.899-0.899,4.699-2.8
		c5-12.7,23.101-58.7,23.101-58.7c0.899-2.399-0.101-5.1-2.3-6.3l-62.5-33.8c-1.4-0.7-1.9-2.5-0.9-3.8c3.2-4.4,6.7-8,11.6-10.4
		c12.101-5.8,25.101-3,37.601-6.899c18.2-5.7,16.399-27.2,13.8-42.4c-3-17.1-9.7-33.8-18.9-48.4c-15.1-23.399-38.3-40.699-65.3-47.6
		c-61.1-15.5-124.2,24.6-140.6,89.4c-6.9,27.199-5.4,55.6,5.399,80.699C339.002,175.73,341.002,177.429,343.502,178.03z
		 M468.802,109.83c2.101-8.1,10.3-13,18.401-11c8.1,2.1,13,10.3,11,18.4c-2.101,8.1-10.3,13-18.4,11
		C471.602,126.23,466.703,118.03,468.802,109.83z"/>
	<path d="M805.403,562.93c32.399,27.699,76.1,34.8,116.699,22.899c3.4-1,5.801-3.899,6.301-7.3c5.399-42-8.2-84-40.601-111.8
		c-32.399-27.7-76.1-34.8-116.7-22.9c-3.399,1-5.8,3.9-6.3,7.3C759.303,493.129,773.003,535.23,805.403,562.93z"/>
	<path d="M64.203,230.629l204.8,28.8l9.8,263.501l0.2,0.1c-0.1,9,2.2,18.1,7.2,26.3l91.7,151.3l-46.4,195
		c-6.4,26.9,10.2,53.801,37.1,60.2c3.9,0.9,7.801,1.4,11.601,1.4c22.6,0,43.1-15.5,48.6-38.4l51.201-214.899
		c3-12.801,0.9-26.301-5.901-37.5l-23.399-38.601l335.5,94.601c4.5,1.3,9.1,1.899,13.6,1.899c21.8,0,41.9-14.399,48.101-36.399
		c7.5-26.601-8-54.2-34.601-61.7l-354.1-99.8v-112.9l23.8,28c8.3,9.8,20.3,14.9,32.4,14.9c8.1,0,16.199-2.301,23.399-7l140.4-92.7
		c19.6-12.9,25-39.301,12.1-58.9c-12.899-19.6-39.3-25-58.899-12.1l-109,72l-215.101-171.7c-6-5.2-13.5-8.8-21.9-10l-210.3-29.601
		c-23.2-3.3-44.7,12.9-48,36.2C24.802,205.929,41.002,227.33,64.203,230.629z"/>
</g>
<g>
</g>
<g>
</g>
<g>
</g>
<g>
</g>
<g>
</g>
<g>
</g>
<g>
</g>
<g>
</g>
<g>
</g>
<g>
</g>
<g>
</g>
<g>
</g>
<g>
</g>
<g>
</g>
<g>
</g>
</svg>
